<?xml version="1.0" standalone="no"?>
<!DOCTYPE svg PUBLIC "-//W3C//DTD SVG 20010904//EN"
 "http://www.w3.org/TR/2001/REC-SVG-20010904/DTD/svg10.dtd">
<svg version="1.0" xmlns="http://www.w3.org/2000/svg"
 width="300.000000pt" height="300.000000pt" viewBox="0 0 300.000000 300.000000"
 preserveAspectRatio="xMidYMid meet">
<metadata>
Created by potrace 1.10, written by Peter Selinger 2001-2011
</metadata>
<g transform="translate(0.000000,300.000000) scale(0.100000,-0.100000)"
fill="#000000" stroke="none">
<path d="M1427 2763 l33 -4 3 -182 2 -182 3 188 2 187 -37 -2 c-37 -1 -37 -1
-6 -5z"/>
<path d="M1530 2576 l0 -194 63 -7 c186 -20 367 -102 505 -230 83 -76 138
-152 195 -264 26 -53 45 -85 41 -71 -35 127 -181 317 -321 416 -112 81 -275
143 -415 159 l-58 6 0 184 0 184 33 4 c31 4 31 4 -5 5 l-38 2 0 -194z"/>
<path d="M1290 2753 c-71 -12 -222 -58 -302 -93 -112 -49 -261 -147 -356 -235
-73 -68 -180 -201 -222 -278 -32 -59 -20 -45 38 43 186 283 475 478 808 544
43 8 93 17 109 19 22 3 20 4 -10 4 -22 0 -51 -2 -65 -4z"/>
<path d="M1650 2750 c25 -4 68 -10 95 -13 49 -6 48 -6 -10 8 -33 8 -76 14 -95
13 -32 -1 -31 -1 10 -8z"/>
<path d="M1890 2696 c132 -45 197 -77 293 -139 243 -158 422 -388 509 -652 12
-38 23 -64 25 -58 5 14 -43 145 -79 218 -115 231 -341 457 -573 573 -61 30
-236 93 -258 91 -7 0 31 -15 83 -33z"/>
<path d="M1370 2380 l-35 -7 40 -1 c22 0 54 4 70 8 l30 8 -35 0 c-19 -1 -51
-4 -70 -8z"/>
<path d="M1222 2345 c-153 -53 -259 -121 -373 -243 -41 -43 -94 -114 -118
-156 -43 -76 -102 -230 -100 -264 0 -9 2 -12 4 -7 2 6 15 48 30 94 65 203 205
382 378 483 83 48 121 65 217 94 41 12 66 23 55 23 -11 0 -53 -11 -93 -24z"/>
<path d="M1441 2116 c-8 -10 -10 -230 -9 -812 3 -752 4 -799 21 -802 16 -3 17
41 17 812 0 462 -4 816 -9 816 -5 0 -14 -6 -20 -14z m19 -801 c0 -530 -3 -805
-10 -805 -11 0 -15 1592 -3 1603 3 4 8 7 10 7 2 0 3 -362 3 -805z"/>
<path d="M1532 1184 l3 -949 30 -1 c28 -1 28 -1 3 3 l-28 4 0 940 0 940 55
-31 c30 -17 112 -64 182 -105 l128 -74 5 -600 5 -601 60 39 c110 70 232 190
275 272 20 36 3 19 -34 -36 -47 -67 -159 -175 -232 -221 -29 -19 -56 -34 -59
-34 -3 0 -5 265 -5 589 l0 590 -27 19 c-38 25 -324 189 -346 198 -16 6 -17
-41 -15 -942z"/>
<path d="M351 2035 c-61 -128 -113 -320 -110 -402 2 -33 2 -34 6 -8 20 152 61
301 114 409 16 32 28 61 25 63 -2 2 -18 -26 -35 -62z"/>
<path d="M1353 2073 c-10 -4 -13 -171 -13 -790 0 -742 1 -784 18 -781 16 3 17
50 20 791 1 433 -1 787 -5 786 -5 0 -14 -3 -20 -6z m17 -783 c0 -513 -3 -780
-10 -780 -11 0 -15 1542 -3 1553 3 4 8 7 10 7 2 0 3 -351 3 -780z"/>
<path d="M1252 2012 c-10 -7 -12 -165 -10 -757 3 -705 4 -750 21 -753 16 -3
17 38 17 757 0 419 -3 761 -7 761 -5 0 -14 -4 -21 -8z m18 -752 c0 -493 -3
-750 -10 -750 -11 0 -15 1482 -3 1493 3 4 8 7 10 7 2 0 3 -337 3 -750z"/>
<path d="M1152 1954 l-22 -15 0 -525 0 -524 -135 0 -135 0 -40 51 c-143 181
-208 387 -197 619 3 70 2 92 -3 65 -12 -56 -12 -188 1 -265 23 -146 105 -325
196 -429 l45 -52 137 3 136 3 3 527 c2 515 3 528 22 538 20 11 20 7 20 -715
l0 -725 -234 0 -234 0 -94 93 c-211 209 -318 431 -372 772 -3 17 -3 -1 0 -40
14 -238 162 -536 365 -738 l99 -97 237 2 238 3 3 733 c1 402 -1 732 -6 732 -4
0 -18 -7 -30 -16z"/>
<path d="M2725 1800 c3 -19 12 -69 20 -110 7 -42 14 -61 14 -43 1 34 -26 173
-35 182 -3 3 -3 -10 1 -29z"/>
<path d="M2341 1776 c-1 -4 7 -36 16 -70 13 -45 17 -100 17 -211 -1 -134 -3
-160 -27 -238 -15 -48 -41 -115 -57 -147 -17 -33 -28 -60 -25 -60 9 0 62 115
83 180 45 140 55 299 26 436 -14 71 -32 129 -33 110z"/>
<path d="M2762 1580 c0 -19 2 -27 5 -17 2 9 2 25 0 35 -3 9 -5 1 -5 -18z"/>
<path d="M234 1500 c0 -52 1 -74 3 -47 2 26 2 68 0 95 -2 26 -3 4 -3 -48z"/>
<path d="M2762 1500 c0 -14 2 -19 5 -12 2 6 2 18 0 25 -3 6 -5 1 -5 -13z"/>
<path d="M2762 1420 c0 -19 2 -27 5 -17 2 9 2 25 0 35 -3 9 -5 1 -5 -18z"/>
<path d="M2742 1300 c-51 -334 -254 -653 -532 -839 -109 -73 -190 -113 -320
-157 -52 -18 -89 -33 -81 -33 22 -1 191 59 256 91 233 116 456 339 573 573 63
126 128 355 120 423 -2 15 -9 -11 -16 -58z"/>
<path d="M850 472 c-86 -38 -112 -130 -56 -195 22 -26 94 -58 81 -36 -4 5 -15
9 -25 9 -19 0 -61 48 -74 84 -4 11 2 36 14 61 25 52 75 80 125 71 41 -8 95
-66 95 -102 0 -42 -29 -91 -63 -108 -26 -13 -28 -16 -11 -16 13 0 35 15 53 35
52 59 40 137 -28 182 -33 22 -80 29 -111 15z"/>
<path d="M1047 473 c-4 -3 -7 -19 -7 -35 0 -26 3 -28 38 -26 36 1 36 1 5 5
-27 4 -33 9 -33 29 0 21 5 24 35 24 61 0 111 -27 134 -72 18 -38 19 -44 5 -76
-7 -19 -14 -36 -14 -39 0 -2 -19 -13 -42 -23 -24 -11 -35 -20 -25 -20 31 0 75
32 88 63 27 65 3 126 -62 159 -33 18 -109 24 -122 11z"/>
<path d="M1318 474 c-4 -3 0 -21 8 -39 18 -44 19 -43 -13 -47 -24 -3 -31 -11
-51 -67 -12 -36 -20 -71 -18 -78 6 -15 211 -19 221 -4 3 5 -14 62 -37 125 -41
114 -42 116 -73 116 -18 0 -34 -3 -37 -6z m99 -116 l40 -113 -100 -3 c-55 -1
-101 -1 -103 0 -2 2 7 34 19 71 20 62 24 67 51 67 21 0 26 -3 18 -12 -5 -7
-13 -28 -17 -45 -6 -32 -6 -33 29 -33 20 0 36 1 36 3 0 2 -13 40 -30 85 -16
46 -30 85 -30 87 0 3 10 5 23 5 20 0 28 -14 64 -112z m-48 -45 c1 -7 -8 -13
-19 -13 -19 0 -19 3 -4 48 6 15 7 15 14 -3 5 -11 9 -26 9 -32z"/>
<path d="M850 400 c-11 -11 -20 -30 -20 -43 0 -28 26 -67 45 -67 9 0 6 9 -10
25 -29 28 -31 42 -9 73 22 32 65 26 78 -9 12 -34 1 -76 -22 -82 -14 -4 -14 -5
-1 -6 47 -3 59 92 15 121 -20 14 -56 8 -76 -12z"/>
<path d="M1143 391 c33 -39 33 -41 5 -76 -21 -27 -21 -27 -1 -17 43 23 37 88
-9 113 -20 11 -19 9 5 -20z"/>
<path d="M1044 376 c-3 -7 -4 -42 -2 -77 l3 -64 35 -1 35 -2 -32 5 -33 4 0 70
c0 67 1 69 25 69 23 0 25 -4 25 -44 0 -25 3 -47 8 -49 4 -3 5 19 4 49 -4 52
-5 54 -33 54 -16 0 -32 -6 -35 -14z"/>
<path d="M1735 264 c-6 -2 -37 -8 -70 -13 -57 -8 -58 -9 -15 -9 25 0 68 6 95
13 29 7 40 13 25 13 -14 0 -30 -2 -35 -4z"/>
</g>
</svg>
