<?xml version="1.0" standalone="no"?>
<!DOCTYPE svg PUBLIC "-//W3C//DTD SVG 20010904//EN"
 "http://www.w3.org/TR/2001/REC-SVG-20010904/DTD/svg10.dtd">
<svg version="1.0" xmlns="http://www.w3.org/2000/svg"
 width="256.000000pt" height="256.000000pt" viewBox="0 0 256.000000 256.000000"
 preserveAspectRatio="xMidYMid meet">

<g transform="translate(0.000000,256.000000) scale(0.100000,-0.100000)"
fill="#000000" stroke="none">
<path d="M1180 2355 c-8 -2 -49 -9 -90 -15 -432 -71 -776 -412 -872 -865 -16
-77 -16 -313 0 -390 50 -234 164 -442 326 -593 l67 -62 197 2 197 3 3 619 c2
561 1 618 -14 612 -8 -3 -18 -6 -20 -6 -2 0 -4 -202 -4 -450 l0 -450 -118 0
c-134 0 -131 -1 -201 103 -119 176 -156 416 -96 620 14 49 35 107 47 130 76
151 215 285 365 354 71 33 186 63 241 63 l42 0 0 165 0 165 -27 -1 c-16 -1
-35 -3 -43 -4z"/>
<path d="M1312 2198 l3 -163 64 -7 c237 -26 471 -193 576 -412 58 -123 78
-207 78 -336 0 -132 -20 -217 -80 -340 -40 -82 -59 -107 -142 -190 -53 -52
-115 -105 -138 -118 l-43 -23 0 513 0 513 -154 88 c-85 48 -157 87 -160 87 -3
0 -6 -362 -6 -805 l0 -805 23 0 c49 0 207 31 280 55 505 164 816 673 732 1194
-76 467 -438 826 -905 896 -52 8 -103 15 -113 15 -16 0 -17 -12 -15 -162z"/>
<path d="M1230 1120 c0 -453 3 -690 10 -690 7 0 10 237 10 690 0 453 -3 690
-10 690 -7 0 -10 -237 -10 -690z"/>
<path d="M1157 1763 c-12 -11 -8 -1333 3 -1333 7 0 10 230 10 670 0 369 -1
670 -3 670 -2 0 -7 -3 -10 -7z"/>
<path d="M1065 1708 c-3 -7 -4 -296 -3 -642 2 -493 6 -630 16 -634 9 -3 12
130 12 642 0 437 -3 646 -10 646 -6 0 -13 -6 -15 -12z"/>
</g>
</svg>
